STARTFONT 2.1
FONT -Adobe-Courier-Medium-O-Normal--34-240-100-100-M-200-ISO8859-2
SIZE 24 100 100
FONTBOUNDINGBOX 23 32 0 -6
COMMENT $XConsortium: courO24.bdf,v 1.10 95/01/26 17:53:15 gildea Exp $
COMMENT 
COMMENT +
COMMENT  Copyright 1984-1989, 1994 Adobe Systems Incorporated.
COMMENT  Copyright 1988, 1994 Digital Equipment Corporation.
COMMENT
COMMENT  Adobe is a trademark of Adobe Systems Incorporated which may be
COMMENT  registered in certain jurisdictions.
COMMENT  Permission to use these trademarks is hereby granted only in
COMMENT  association with the images described in this file.
COMMENT
COMMENT  Permission to use, copy, modify, distribute and sell this software
COMMENT  and its documentation for any purpose and without fee is hereby
COMMENT  granted, provided that the above copyright notices appear in all
COMMENT  copies and that both those copyright notices and this permission
COMMENT  notice appear in supporting documentation, and that the names of
COMMENT  Adobe Systems and Digital Equipment Corporation not be used in
COMMENT  advertising or publicity pertaining to distribution of the software
COMMENT  without specific, written prior permission.  Adobe Systems and
COMMENT  Digital Equipment Corporation make no representations about the
COMMENT  suitability of this software for any purpose.  It is provided "as
COMMENT  is" without express or implied warranty.
COMMENT -
COMMENT  
COMMENT  Translation to ISO8859-2 by Cub Soft;  Petr.Kolar@vslib.cz
COMMENT  
STARTPROPERTIES 28
FOUNDRY "Adobe"
FAMILY_NAME "Courier"
WEIGHT_NAME "Medium"
SLANT "O"
SETWIDTH_NAME "Normal"
ADD_STYLE_NAME ""
PIXEL_SIZE 34
POINT_SIZE 240
RESOLUTION_X 100
RESOLUTION_Y 100
SPACING "M"
AVERAGE_WIDTH 200
CHARSET_REGISTRY "ISO8859"
CHARSET_ENCODING "2"
CAP_HEIGHT 19
X_HEIGHT 14
FONT_ASCENT 23
FONT_DESCENT 6
FACE_NAME "Courier Oblique"

STARTCHAR space
ENCODING 32
SWIDTH 600 0
DWIDTH 20 0
BBX 1 1 0 0
BITMAP
00
ENDCHAR
STARTCHAR exclam
ENCODING 33
SWIDTH 600 0
DWIDTH 20 0
BBX 8 21 8 0
BITMAP
02
07
06
06
0e
0c
0c
0c
08
08
18
10
10
10
00
00
00
00
70
f0
e0
ENDCHAR
STARTCHAR quotedbl
ENCODING 34
SWIDTH 600 0
DWIDTH 20 0
BBX 11 8 8 13
BITMAP
f1e0
f1e0
e1c0
e1c0
c180
c180
8100
8100
ENDCHAR
STARTCHAR numbersign
ENCODING 35
SWIDTH 600 0
DWIDTH 20 0
BBX 15 23 4 -2
BITMAP
0088
0088
0110
0110
0110
0110
0220
0220
3ffe
0220
0440
0440
0440
0880
fff8
0880
0880
1100
1100
1100
1100
2200
2200
ENDCHAR
STARTCHAR dollar
ENCODING 36
SWIDTH 600 0
DWIDTH 20 0
BBX 14 26 5 -3
BITMAP
0020
0020
0040
0040
01c4
0634
0808
0808
1008
1000
1000
0c00
0380
0060
0010
0010
4010
4020
4020
e1c0
9e00
0800
0800
0800
1000
1000
ENDCHAR
STARTCHAR percent
ENCODING 37
SWIDTH 600 0
DWIDTH 20 0
BBX 14 20 5 0
BITMAP
0380
0c40
0840
1040
1040
1080
1180
0e0c
0070
0380
3800
c000
01c0
0660
0420
0820
0820
0840
08c0
0700
ENDCHAR
STARTCHAR ampersand
ENCODING 38
SWIDTH 600 0
DWIDTH 20 0
BBX 13 17 5 0
BITMAP
0390
0460
0800
0800
0800
0800
0400
0400
1c00
2218
4220
4220
8140
8180
8100
8280
7ce0
ENDCHAR
STARTCHAR apostrophe
ENCODING 39
SWIDTH 600 0
DWIDTH 20 0
BBX 8 7 8 13
BITMAP
1f
1e
3c
38
70
60
c0
ENDCHAR
STARTCHAR parenleft
ENCODING 40
SWIDTH 600 0
DWIDTH 20 0
BBX 8 25 13 -4
BITMAP
01
02
06
04
08
18
30
30
60
60
60
c0
c0
c0
c0
c0
80
80
80
80
40
40
40
20
20
ENDCHAR
STARTCHAR parenright
ENCODING 41
SWIDTH 600 0
DWIDTH 20 0
BBX 8 25 4 -4
BITMAP
04
04
02
02
02
01
01
01
01
03
03
03
03
03
06
06
06
0c
0c
18
10
20
60
40
80
ENDCHAR
STARTCHAR asterisk
ENCODING 42
SWIDTH 600 0
DWIDTH 20 0
BBX 12 13 7 8
BITMAP
0200
0200
0200
0600
e430
35e0
0e00
0a00
1300
3100
2100
4080
8080
ENDCHAR
STARTCHAR plus
ENCODING 43
SWIDTH 600 0
DWIDTH 20 0
BBX 15 17 4 1
BITMAP
0040
0040
0040
0080
0080
0080
0100
0100
fffe
0100
0100
0200
0200
0200
0200
0400
0400
ENDCHAR
STARTCHAR comma
ENCODING 44
SWIDTH 600 0
DWIDTH 20 0
BBX 8 7 4 -3
BITMAP
1f
1e
3c
38
70
60
c0
ENDCHAR
STARTCHAR minus
ENCODING 45
SWIDTH 600 0
DWIDTH 20 0
BBX 14 1 5 9
BITMAP
fffc
ENDCHAR
STARTCHAR period
ENCODING 46
SWIDTH 600 0
DWIDTH 20 0
BBX 4 4 8 0
BITMAP
70
f0
f0
e0
ENDCHAR
STARTCHAR slash
ENCODING 47
SWIDTH 600 0
DWIDTH 20 0
BBX 18 25 3 -3
BITMAP
000040
000080
000080
000100
000200
000400
000400
000800
001000
001000
002000
004000
008000
008000
010000
020000
020000
040000
080000
080000
100000
200000
400000
400000
800000
ENDCHAR
STARTCHAR zero
ENCODING 48
SWIDTH 600 0
DWIDTH 20 0
BBX 13 20 6 0
BITMAP
03c0
0420
1810
1010
2008
2008
2008
4008
4008
8008
8010
8010
8010
8020
8020
8020
4040
40c0
2100
1e00
ENDCHAR
STARTCHAR one
ENCODING 49
SWIDTH 600 0
DWIDTH 20 0
BBX 12 20 5 0
BITMAP
0060
03a0
0e40
0040
0080
0080
0080
0080
0100
0100
0100
0100
0200
0200
0200
0200
0400
0400
0400
fff0
ENDCHAR
STARTCHAR two
ENCODING 50
SWIDTH 600 0
DWIDTH 20 0
BBX 15 20 3 0
BITMAP
00f8
0304
0402
0802
1002
0002
0004
0004
0008
0010
0020
0040
0080
0100
0200
0400
1800
3008
c008
fff0
ENDCHAR
STARTCHAR three
ENCODING 51
SWIDTH 600 0
DWIDTH 20 0
BBX 16 19 3 0
BITMAP
00fc
0302
0401
0001
0001
0001
0002
000c
00f0
0008
0004
0004
0004
0004
0008
0008
c010
3060
0f80
ENDCHAR
STARTCHAR four
ENCODING 52
SWIDTH 600 0
DWIDTH 20 0
BBX 13 20 5 0
BITMAP
0018
0028
0048
0088
0110
0210
0410
0420
0820
1020
2020
4020
8040
fff0
0040
0040
0040
0080
0080
07e0
ENDCHAR
STARTCHAR five
ENCODING 53
SWIDTH 600 0
DWIDTH 20 0
BBX 14 20 5 0
BITMAP
07fc
0400
0400
0800
0800
0800
11c0
1630
1810
1008
0008
0008
0008
0008
0008
0010
0010
8020
60c0
1f00
ENDCHAR
STARTCHAR six
ENCODING 54
SWIDTH 600 0
DWIDTH 20 0
BBX 13 20 7 0
BITMAP
00e0
0318
0c00
0800
1000
2000
2000
4000
4780
9840
a020
c020
c020
8020
8020
8040
8040
c080
4100
3e00
ENDCHAR
STARTCHAR seven
ENCODING 55
SWIDTH 600 0
DWIDTH 20 0
BBX 12 20 8 0
BITMAP
fff0
8010
8020
0020
0040
0040
0080
0080
0100
0100
0200
0200
0400
0400
0800
0800
1000
1000
2000
2000
ENDCHAR
STARTCHAR eight
ENCODING 56
SWIDTH 600 0
DWIDTH 20 0
BBX 13 20 5 0
BITMAP
03c0
0c30
1010
1008
2008
2008
2008
2010
1830
07c0
1860
2010
4010
4010
8010
8010
8020
8020
40c0
3f00
ENDCHAR
STARTCHAR nine
ENCODING 57
SWIDTH 600 0
DWIDTH 20 0
BBX 14 20 5 0
BITMAP
01e0
0618
0808
1004
1004
2004
2004
2004
200c
2014
1024
18c8
0708
0008
0010
0030
0040
00c0
0700
f800
ENDCHAR
STARTCHAR colon
ENCODING 58
SWIDTH 600 0
DWIDTH 20 0
BBX 6 14 8 0
BITMAP
1c
3c
3c
38
00
00
00
00
00
00
70
f0
f0
e0
ENDCHAR
STARTCHAR semicolon
ENCODING 59
SWIDTH 600 0
DWIDTH 20 0
BBX 10 17 4 -3
BITMAP
01c0
03c0
03c0
0380
0000
0000
0000
0000
0000
0000
1f00
1e00
3c00
3800
7000
e000
c000
ENDCHAR
STARTCHAR less
ENCODING 60
SWIDTH 600 0
DWIDTH 20 0
BBX 16 17 5 1
BITMAP
0003
000e
0038
00e0
0380
0e00
3800
6000
c000
6000
3000
1c00
0600
0300
01c0
0060
0030
ENDCHAR
STARTCHAR equal
ENCODING 61
SWIDTH 600 0
DWIDTH 20 0
BBX 17 6 3 6
BITMAP
7fff80
000000
000000
000000
000000
ffff00
ENDCHAR
STARTCHAR greater
ENCODING 62
SWIDTH 600 0
DWIDTH 20 0
BBX 16 17 3 1
BITMAP
0c00
0700
0180
00c0
0070
0018
000c
0006
0003
0006
001c
0070
01c0
0700
1c00
7000
c000
ENDCHAR
STARTCHAR question
ENCODING 63
SWIDTH 600 0
DWIDTH 20 0
BBX 11 19 8 0
BITMAP
1f80
30c0
4020
8020
0020
0060
0040
0180
0600
0c00
1000
3000
2000
0000
0000
0000
7000
f000
e000
ENDCHAR
STARTCHAR at
ENCODING 64
SWIDTH 600 0
DWIDTH 20 0
BBX 13 23 5 -2
BITMAP
01f0
0718
0808
1808
1008
1008
3008
2078
2190
6210
4210
4410
c410
8420
8260
81b0
8000
8000
8000
c000
4000
20c0
1f00
ENDCHAR
STARTCHAR A
ENCODING 65
SWIDTH 600 0
DWIDTH 20 0
BBX 19 19 0 0
BITMAP
01fe00
001200
001200
002200
002200
004100
004100
008100
008100
010100
020100
020100
07ff00
040100
080080
080080
100080
100080
fe07e0
ENDCHAR
STARTCHAR B
ENCODING 66
SWIDTH 600 0
DWIDTH 20 0
BBX 19 19 1 0
BITMAP
0fff80
010040
010020
020020
020020
020020
020040
040080
040300
07fe00
040180
040040
080040
080040
080040
080080
100080
100700
fff800
ENDCHAR
STARTCHAR C
ENCODING 67
SWIDTH 600 0
DWIDTH 20 0
BBX 17 19 4 0
BITMAP
00f080
070e80
080180
100100
200100
200100
400000
400000
800000
800000
800000
800000
800000
800000
800000
400400
401800
38e000
070000
ENDCHAR
STARTCHAR D
ENCODING 68
SWIDTH 600 0
DWIDTH 20 0
BBX 17 19 2 0
BITMAP
0ff800
020600
020100
040100
040080
040080
040080
080080
080080
080080
080080
080080
100100
100100
100200
100200
200c00
207000
ff8000
ENDCHAR
STARTCHAR E
ENCODING 69
SWIDTH 600 0
DWIDTH 20 0
BBX 19 19 1 0
BITMAP
0fffe0
010020
010020
020040
020040
020440
020400
040400
07fc00
040800
040800
040800
080000
080080
080080
080080
100100
100100
ffff00
ENDCHAR
STARTCHAR F
ENCODING 70
SWIDTH 600 0
DWIDTH 20 0
BBX 20 19 1 0
BITMAP
0ffff0
010010
010010
020020
020020
020420
020400
040400
07fc00
040800
040800
040800
080000
080000
080000
080000
100000
100000
ffc000
ENDCHAR
STARTCHAR G
ENCODING 71
SWIDTH 600 0
DWIDTH 20 0
BBX 17 19 4 0
BITMAP
00f080
070e80
080180
100100
200100
400100
400000
800000
800000
800000
800000
80ff00
800200
800400
800400
400400
400800
303800
0fc000
ENDCHAR
STARTCHAR H
ENCODING 72
SWIDTH 600 0
DWIDTH 20 0
BBX 20 19 2 0
BITMAP
0fc3f0
020040
020040
040080
040080
040080
040080
080100
080100
0fff00
080100
080100
100200
100200
100200
100200
200400
200400
fc3f80
ENDCHAR
STARTCHAR I
ENCODING 73
SWIDTH 600 0
DWIDTH 20 0
BBX 15 19 4 0
BITMAP
1ffe
0040
0040
0080
0080
0080
0080
0100
0100
0100
0100
0100
0200
0200
0200
0200
0400
0400
fff0
ENDCHAR
STARTCHAR J
ENCODING 74
SWIDTH 600 0
DWIDTH 20 0
BBX 19 19 4 0
BITMAP
00ffe0
000200
000200
000400
000400
000400
000400
000800
000800
000800
000800
401000
401000
401000
801000
802000
402000
30c000
0f0000
ENDCHAR
STARTCHAR K
ENCODING 75
SWIDTH 600 0
DWIDTH 20 0
BBX 21 19 1 0
BITMAP
0fe1f8
010020
0100c0
020100
020200
020400
021800
042000
044000
05b000
060800
040800
080800
080400
080400
080400
100400
100200
ff03c0
ENDCHAR
STARTCHAR L
ENCODING 76
SWIDTH 600 0
DWIDTH 20 0
BBX 17 19 2 0
BITMAP
0ff800
008000
008000
010000
010000
010000
010000
020000
020000
020000
020000
020000
040080
040080
040080
040100
080100
080100
ffff00
ENDCHAR
STARTCHAR M
ENCODING 77
SWIDTH 600 0
DWIDTH 20 0
BBX 22 19 1 0
BITMAP
0f003c
030050
028050
0480a0
048120
048120
044220
084440
084440
084840
083040
083040
102080
100080
100080
100080
200100
200100
fc0fc0
ENDCHAR
STARTCHAR N
ENCODING 78
SWIDTH 600 0
DWIDTH 20 0
BBX 20 19 2 0
BITMAP
1f03f0
030040
028040
048080
048080
048080
044080
084100
084100
084100
082100
082100
102200
101200
101200
101200
201400
200c00
fc0c00
ENDCHAR
STARTCHAR O
ENCODING 79
SWIDTH 600 0
DWIDTH 20 0
BBX 16 19 4 0
BITMAP
01f0
0608
1804
2002
2002
4001
4001
4001
8001
8001
8001
8002
8002
8002
4004
4004
2018
1060
0f80
ENDCHAR
STARTCHAR P
ENCODING 80
SWIDTH 600 0
DWIDTH 20 0
BBX 18 19 1 0
BITMAP
0ffe00
010180
010040
020040
020040
020040
020040
040080
040100
040600
07f800
040000
080000
080000
080000
080000
100000
100000
ffc000
ENDCHAR
STARTCHAR Q
ENCODING 81
SWIDTH 600 0
DWIDTH 20 0
BBX 16 22 4 -3
BITMAP
03f0
0c0c
1002
2002
2001
4001
4001
4001
8001
8001
8001
8002
8002
8002
4004
4004
2008
1830
07c0
1800
7e0c
c1f0
ENDCHAR
STARTCHAR R
ENCODING 82
SWIDTH 600 0
DWIDTH 20 0
BBX 19 19 1 0
BITMAP
0ffe00
010180
010040
020040
020040
020040
020080
040100
040e00
07f000
041800
040400
080400
080200
080200
080100
100100
100080
ff00e0
ENDCHAR
STARTCHAR S
ENCODING 83
SWIDTH 600 0
DWIDTH 20 0
BBX 17 19 3 0
BITMAP
00f880
030680
040180
040100
080100
080100
080000
080000
060000
01c000
003800
000400
000200
400200
400200
400400
600400
b03800
8fc000
ENDCHAR
STARTCHAR T
ENCODING 84
SWIDTH 600 0
DWIDTH 20 0
BBX 16 19 5 0
BITMAP
3fff
2081
2081
4102
4102
4102
4102
0200
0200
0200
0200
0200
0400
0400
0400
0400
0800
0800
ffc0
ENDCHAR
STARTCHAR U
ENCODING 85
SWIDTH 600 0
DWIDTH 20 0
BBX 17 19 5 0
BITMAP
7e1f80
100200
100200
200400
200400
200400
200400
400800
400800
400800
400800
801000
801000
801000
802000
402000
404000
208000
1f0000
ENDCHAR
STARTCHAR V
ENCODING 86
SWIDTH 600 0
DWIDTH 20 0
BBX 19 19 4 0
BITMAP
fc0fe0
200100
200100
200200
100200
100400
100400
100800
101000
101000
082000
084000
084000
088000
088000
090000
050000
060000
060000
ENDCHAR
STARTCHAR W
ENCODING 87
SWIDTH 600 0
DWIDTH 20 0
BBX 19 19 4 0
BITMAP
fe0fe0
200080
200100
200100
21c100
414200
424200
424200
444400
444400
484400
484800
484800
504800
905000
a05000
a05000
c06000
c06000
ENDCHAR
STARTCHAR X
ENCODING 88
SWIDTH 600 0
DWIDTH 20 0
BBX 21 19 1 0
BITMAP
0f81f8
020020
020040
010080
010100
008200
008400
004800
005000
002000
005000
009000
010800
020800
040400
080400
100200
200200
fc1f80
ENDCHAR
STARTCHAR Y
ENCODING 89
SWIDTH 600 0
DWIDTH 20 0
BBX 17 19 5 0
BITMAP
f81f80
200400
100800
100800
081000
082000
084000
048000
048000
030000
020000
020000
020000
040000
040000
040000
040000
080000
ffc000
ENDCHAR
STARTCHAR Z
ENCODING 90
SWIDTH 600 0
DWIDTH 20 0
BBX 16 19 3 0
BITMAP
07ff
0401
0402
0804
0808
0808
0010
0020
0040
0080
0100
0200
0404
0404
0804
1008
2008
4008
fff8
ENDCHAR
STARTCHAR bracketleft
ENCODING 91
SWIDTH 600 0
DWIDTH 20 0
BBX 11 25 8 -4
BITMAP
07e0
0400
0400
0800
0800
0800
0800
0800
1000
1000
1000
1000
2000
2000
2000
2000
2000
4000
4000
4000
4000
4000
8000
8000
fc00
ENDCHAR
STARTCHAR backslash
ENCODING 92
SWIDTH 600 0
DWIDTH 20 0
BBX 6 25 9 -3
BITMAP
80
80
80
40
40
40
40
40
20
20
20
20
20
10
10
10
10
08
08
08
08
08
04
04
04
ENDCHAR
STARTCHAR bracketright
ENCODING 93
SWIDTH 600 0
DWIDTH 20 0
BBX 10 25 4 -4
BITMAP
07c0
0040
0040
0080
0080
0080
0080
0080
0100
0100
0100
0100
0200
0200
0200
0200
0200
0400
0400
0400
0400
0400
0800
0800
f800
ENDCHAR
STARTCHAR asciicircum
ENCODING 94
SWIDTH 600 0
DWIDTH 20 0
BBX 12 9 6 12
BITMAP
0100
0380
0680
0cc0
1840
3060
6020
c030
8010
ENDCHAR
STARTCHAR underscore
ENCODING 95
SWIDTH 600 0
DWIDTH 20 0
BBX 20 1 0 -6
BITMAP
fffff0
ENDCHAR
STARTCHAR grave
ENCODING 96
SWIDTH 600 0
DWIDTH 20 0
BBX 6 5 9 16
BITMAP
c0
60
30
18
0c
ENDCHAR
STARTCHAR a
ENCODING 97
SWIDTH 600 0
DWIDTH 20 0
BBX 14 14 4 0
BITMAP
07c0
1830
0008
0008
0008
0008
0f88
3070
4010
4010
8010
8020
80e0
7f3c
ENDCHAR
STARTCHAR b
ENCODING 98
SWIDTH 600 0
DWIDTH 20 0
BBX 18 20 1 0
BITMAP
0f0000
010000
020000
020000
020000
020000
021e00
046100
058080
050080
060040
040040
0c0040
080040
080080
080100
0c0100
140200
120c00
f1f000
ENDCHAR
STARTCHAR c
ENCODING 99
SWIDTH 600 0
DWIDTH 20 0
BBX 14 14 5 0
BITMAP
07e4
1814
201c
4008
4008
8000
8000
8000
8000
8000
4008
4030
30c0
0f00
ENDCHAR
STARTCHAR d
ENCODING 100
SWIDTH 600 0
DWIDTH 20 0
BBX 16 20 4 0
BITMAP
000f
0001
0002
0002
0002
0002
0782
1864
3014
400c
400c
8004
8004
8008
8008
8018
8018
4070
6190
1e1e
ENDCHAR
STARTCHAR e
ENCODING 101
SWIDTH 600 0
DWIDTH 20 0
BBX 14 14 4 0
BITMAP
07c0
1830
2008
4008
4004
8004
fffc
8000
8000
8000
4000
4018
3060
0f80
ENDCHAR
STARTCHAR f
ENCODING 102
SWIDTH 600 0
DWIDTH 20 0
BBX 18 20 4 0
BITMAP
001f00
0060c0
004000
008000
008000
008000
1ffe00
010000
010000
010000
020000
020000
020000
020000
040000
040000
040000
040000
080000
fff000
ENDCHAR
STARTCHAR g
ENCODING 103
SWIDTH 600 0
DWIDTH 20 0
BBX 18 20 4 -6
BITMAP
07e3c0
181200
200a00
200400
400400
400400
800400
800c00
800800
801800
402800
60c800
1f1000
001000
001000
001000
001000
002000
004000
7f8000
ENDCHAR
STARTCHAR h
ENCODING 104
SWIDTH 600 0
DWIDTH 20 0
BBX 17 20 2 0
BITMAP
1e0000
020000
040000
040000
040000
040000
043c00
08c200
0b0200
0c0100
080100
080100
100100
100200
100200
100200
100200
200400
200400
fc1f80
ENDCHAR
STARTCHAR i
ENCODING 105
SWIDTH 600 0
DWIDTH 20 0
BBX 13 20 3 0
BITMAP
0060
0060
0060
0000
0000
0000
0fc0
0040
0040
0080
0080
0080
0080
0100
0100
0100
0100
0200
0200
fff8
ENDCHAR
STARTCHAR j
ENCODING 106
SWIDTH 600 0
DWIDTH 20 0
BBX 14 26 2 -6
BITMAP
000c
000c
000c
0000
0000
0000
0ffc
0004
0004
0008
0008
0008
0008
0010
0010
0010
0010
0010
0020
0020
0020
0020
0040
0040
0380
fc00
ENDCHAR
STARTCHAR k
ENCODING 107
SWIDTH 600 0
DWIDTH 20 0
BBX 17 20 2 0
BITMAP
0f0000
010000
020000
020000
020000
020000
021f80
040c00
041000
042000
04c000
050000
0e8000
084000
084000
082000
081000
100800
100800
f03f00
ENDCHAR
STARTCHAR l
ENCODING 108
SWIDTH 600 0
DWIDTH 20 0
BBX 13 20 3 0
BITMAP
0fe0
0020
0040
0040
0040
0040
0040
0080
0080
0080
0080
0080
0100
0100
0100
0100
0100
0200
0200
fff8
ENDCHAR
STARTCHAR m
ENCODING 109
SWIDTH 600 0
DWIDTH 20 0
BBX 19 14 1 0
BITMAP
1ce1c0
051220
061420
0c1820
081020
081020
081040
102040
102040
102040
102040
204080
204080
f870e0
ENDCHAR
STARTCHAR n
ENCODING 110
SWIDTH 600 0
DWIDTH 20 0
BBX 16 14 2 0
BITMAP
1c3c
04c2
0502
0e01
0801
0801
0801
1002
1002
1002
1002
2004
2004
fc1f
ENDCHAR
STARTCHAR o
ENCODING 111
SWIDTH 600 0
DWIDTH 20 0
BBX 15 14 4 0
BITMAP
03f0
0c08
1004
2004
2002
4002
4002
8004
8004
8008
4008
4010
2060
1f80
ENDCHAR
STARTCHAR p
ENCODING 112
SWIDTH 600 0
DWIDTH 20 0
BBX 19 20 0 -6
BITMAP
0f0f00
0130c0
014040
018040
030020
020020
020020
060020
040020
040040
060040
060080
058300
087c00
080000
080000
080000
100000
100000
ff0000
ENDCHAR
STARTCHAR q
ENCODING 113
SWIDTH 600 0
DWIDTH 20 0
BBX 18 20 4 -6
BITMAP
03c3c0
0c3200
300a00
200600
400400
400400
800c00
800c00
800800
801800
801800
402800
60c800
1f1000
001000
001000
001000
002000
002000
03fc00
ENDCHAR
STARTCHAR r
ENCODING 114
SWIDTH 600 0
DWIDTH 20 0
BBX 17 14 3 0
BITMAP
1f0f00
013080
01c000
030000
020000
020000
020000
040000
040000
040000
040000
080000
080000
fff000
ENDCHAR
STARTCHAR s
ENCODING 115
SWIDTH 600 0
DWIDTH 20 0
BBX 15 14 4 0
BITMAP
01e2
061a
0804
1004
1000
0c00
0380
0070
0008
4004
4004
4008
b030
8fc0
ENDCHAR
STARTCHAR t
ENCODING 116
SWIDTH 600 0
DWIDTH 20 0
BBX 13 19 4 0
BITMAP
0400
0400
0400
0800
0800
fff8
0800
0800
1000
1000
1000
1000
1000
2000
2000
2000
1008
1030
0fc0
ENDCHAR
STARTCHAR u
ENCODING 117
SWIDTH 600 0
DWIDTH 20 0
BBX 15 14 4 0
BITMAP
f03e
1002
1002
2004
2004
2004
2004
2008
4008
4008
4008
4030
20d0
1f1c
ENDCHAR
STARTCHAR v
ENCODING 118
SWIDTH 600 0
DWIDTH 20 0
BBX 17 14 4 0
BITMAP
fc1f80
200400
200400
200800
100800
101000
102000
102000
104000
108000
088000
090000
0a0000
0e0000
ENDCHAR
STARTCHAR w
ENCODING 119
SWIDTH 600 0
DWIDTH 20 0
BBX 17 14 4 0
BITMAP
f80f80
400100
400100
400200
410200
430400
428400
448800
448800
489000
489000
50a000
50a000
60c000
ENDCHAR
STARTCHAR x
ENCODING 120
SWIDTH 600 0
DWIDTH 20 0
BBX 19 14 1 0
BITMAP
0f83e0
020080
010300
010400
008800
005000
006000
00a000
011000
020800
040400
180400
200200
fc1f80
ENDCHAR
STARTCHAR y
ENCODING 121
SWIDTH 600 0
DWIDTH 20 0
BBX 20 20 0 -6
BITMAP
1f81f0
040040
020040
020080
020100
010100
010200
010400
010400
008800
009000
00a000
006000
004000
008000
008000
010000
020000
020000
ffc000
ENDCHAR
STARTCHAR z
ENCODING 122
SWIDTH 600 0
DWIDTH 20 0
BBX 14 14 4 0
BITMAP
1ffc
1008
2010
2020
0040
0080
0100
0200
0400
0800
1008
2008
4010
fff0
ENDCHAR
STARTCHAR braceleft
ENCODING 123
SWIDTH 600 0
DWIDTH 20 0
BBX 9 25 8 -4
BITMAP
0180
0200
0600
0400
0c00
0800
0800
0800
1800
1000
1000
1000
6000
8000
6000
2000
2000
2000
2000
6000
4000
4000
4000
4000
3000
ENDCHAR
STARTCHAR bar
ENCODING 124
SWIDTH 600 0
DWIDTH 20 0
BBX 6 25 8 -4
BITMAP
04
04
04
08
08
08
08
08
10
10
10
10
20
20
20
20
20
40
40
40
40
40
80
80
80
ENDCHAR
STARTCHAR braceright
ENCODING 125
SWIDTH 600 0
DWIDTH 20 0
BBX 9 25 5 -4
BITMAP
0200
0100
0080
0080
0080
0100
0100
0100
0100
0300
0200
0100
0100
0180
0200
0200
0600
0400
0400
0c00
0800
0800
0800
3000
c000
ENDCHAR
STARTCHAR asciitilde
ENCODING 126
SWIDTH 600 0
DWIDTH 20 0
BBX 14 5 5 7
BITMAP
1c00
3e0c
6318
c1f0
00e0
ENDCHAR
STARTCHAR nobreakspace
ENCODING 160
SWIDTH 600 0
DWIDTH 20 0
BBX 1 1 0 0
BITMAP
00
ENDCHAR
STARTCHAR Aogonek
ENCODING 161
SWIDTH 600 0
DWIDTH 20 0
BBX 19 25 0 -6
BITMAP
01fe00
001200
001200
002200
002200
004100
004100
008100
008100
010100
020100
020100
07ff00
040100
080080
080080
100080
100080
fe07e0
002000
004000
004000
008000
009000
006000
ENDCHAR
STARTCHAR breve
ENCODING 162
SWIDTH 600 0
DWIDTH 20 0
BBX 10 5 9 16
BITMAP
c0c0
c0c0
c180
7f00
1c00
ENDCHAR
STARTCHAR Lstroke
ENCODING 163
SWIDTH 600 0
DWIDTH 20 0
BBX 17 19 2 0
BITMAP
0ff800
008000
008000
010000
010000
010000
010800
023000
02c000
030000
0e0000
320000
440080
040080
040080
040100
080100
080100
ffff00
ENDCHAR
STARTCHAR currency
ENCODING 164
SWIDTH 600 0
DWIDTH 20 0
BBX 13 13 6 3
BITMAP
4008
2790
1860
1040
2020
2020
4020
4020
4040
4040
2180
5e40
8020
ENDCHAR
STARTCHAR Lcaron
ENCODING 165
SWIDTH 750 0
DWIDTH 25 0
BBX 22 21 2 0
BITMAP
00007c
000078
0ff8f0
0080e0
0081c0
010180
010300
010000
010000
020000
020000
020000
020000
020000
040080
040080
040080
040100
080100
080100
ffff00
ENDCHAR
STARTCHAR Sacute
ENCODING 166
SWIDTH 600 0
DWIDTH 20 0
BBX 18 25 3 0
BITMAP
0000c0
000180
000700
000c00
001800
000000
00f880
030680
040180
040100
080100
080100
080000
080000
060000
01c000
003800
000400
000200
400200
400200
400400
600400
b03800
8fc000
ENDCHAR
STARTCHAR section
ENCODING 167
SWIDTH 600 0
DWIDTH 20 0
BBX 16 23 4 -2
BITMAP
00ff
0101
0201
0201
0400
0400
0e00
1180
2040
2020
3010
1008
080c
0404
0204
0188
0070
0020
0020
8040
8040
8180
fe00
ENDCHAR
STARTCHAR diaeresis
ENCODING 168
SWIDTH 600 0
DWIDTH 20 0
BBX 10 3 9 16
BITMAP
60c0
e1c0
c180
ENDCHAR
STARTCHAR Scaron
ENCODING 169
SWIDTH 600 0
DWIDTH 20 0
BBX 17 25 3 0
BITMAP
018180
00c300
006e00
003800
001000
000000
00f880
030680
040180
040100
080100
080100
080000
080000
060000
01c000
003800
000400
000200
400200
400200
400400
600400
b03800
8fc000
ENDCHAR
STARTCHAR Scedilla
ENCODING 170
SWIDTH 600 0
DWIDTH 20 0
BBX 17 24 3 -5
BITMAP
00f880
030680
040180
040100
080100
080100
080000
080000
060000
01c000
003800
000400
000200
400200
400200
400400
600400
b03800
8fc000
004000
004000
00e000
023000
01e000
ENDCHAR
STARTCHAR Tcaron
ENCODING 171
SWIDTH 600 0
DWIDTH 20 0
BBX 16 25 5 0
BITMAP
0606
030c
01b8
00e0
0040
0000
3fff
2081
2081
4102
4102
4102
4102
0200
0200
0200
0200
0200
0400
0400
0400
0400
0800
0800
ffc0
ENDCHAR
STARTCHAR Zacute
ENCODING 172
SWIDTH 600 0
DWIDTH 20 0
BBX 17 25 3 0
BITMAP
000180
000300
000e00
001800
003000
000000
07ff00
040100
040200
080400
080800
080800
001000
002000
004000
008000
010000
020000
040400
040400
080400
100800
200800
400800
fff800
ENDCHAR
STARTCHAR hyphen
ENCODING 173
SWIDTH 600 0
DWIDTH 20 0
BBX 14 1 5 8
BITMAP
fffc
ENDCHAR
STARTCHAR Zcaron
ENCODING 174
SWIDTH 600 0
DWIDTH 20 0
BBX 16 25 3 0
BITMAP
0303
0186
00dc
0070
0020
0000
07ff
0401
0402
0804
0808
0808
0010
0020
0040
0080
0100
0200
0404
0404
0804
1008
2008
4008
fff8
ENDCHAR
STARTCHAR Zabovedot
ENCODING 175
SWIDTH 600 0
DWIDTH 20 0
BBX 16 23 3 0
BITMAP
0018
0038
0030
0000
07ff
0401
0402
0804
0808
0808
0010
0020
0040
0080
0100
0200
0404
0404
0804
1008
2008
4008
fff8
ENDCHAR
STARTCHAR degree
ENCODING 176
SWIDTH 600 0
DWIDTH 20 0
BBX 10 10 8 11
BITMAP
0f00
3080
4040
8040
8040
8040
8040
8080
4300
3c00
ENDCHAR
STARTCHAR aogonek
ENCODING 177
SWIDTH 600 0
DWIDTH 20 0
BBX 14 20 4 -6
BITMAP
07c0
1830
0008
0008
0008
0008
0f88
3070
4010
4010
8010
8020
80e0
7f3c
0100
0200
0200
0400
0480
0300
ENDCHAR
STARTCHAR ogonek
ENCODING 178
SWIDTH 600 0
DWIDTH 20 0
BBX 4 6 9 -5
BITMAP
20
40
40
80
90
60
ENDCHAR
STARTCHAR lstroke
ENCODING 179
SWIDTH 600 0
DWIDTH 20 0
BBX 14 21 3 0
BITMAP
07e0
0020
0020
0040
0040
0040
0044
0058
00a0
00c0
0180
0680
0880
0100
0100
0100
0100
0100
0200
0200
fff8
ENDCHAR
STARTCHAR acute
ENCODING 180
SWIDTH 600 0
DWIDTH 20 0
BBX 7 5 13 16
BITMAP
06
0c
38
60
c0
ENDCHAR
STARTCHAR lcaron
ENCODING 181
SWIDTH 810 0
DWIDTH 27 0
BBX 20 22 3 0
BITMAP
0001f0
0001e0
0fe3c0
002380
004700
004600
004c00
004000
004000
008000
008000
008000
008000
008000
010000
010000
010000
010000
010000
020000
020000
fff800
ENDCHAR
STARTCHAR sacute
ENCODING 182
SWIDTH 600 0
DWIDTH 20 0
BBX 16 20 4 0
BITMAP
0003
0006
001c
0030
0060
0000
01e2
061a
0804
1004
1000
0c00
0380
0070
0008
4004
4004
4008
b030
8fc0
ENDCHAR
STARTCHAR caron
ENCODING 183
SWIDTH 600 0
DWIDTH 20 0
BBX 10 5 9 16
BITMAP
c0c0
6180
3700
1c00
0800
ENDCHAR
STARTCHAR cedilla
ENCODING 184
SWIDTH 600 0
DWIDTH 20 0
BBX 6 5 6 -5
BITMAP
10
10
38
8c
78
ENDCHAR
STARTCHAR scaron
ENCODING 185
SWIDTH 600 0
DWIDTH 20 0
BBX 15 20 4 0
BITMAP
0606
030c
01b8
00e0
0040
0000
01e2
061a
0804
1004
1000
0c00
0380
0070
0008
4004
4004
4008
b030
8fc0
ENDCHAR
STARTCHAR scedilla
ENCODING 186
SWIDTH 600 0
DWIDTH 20 0
BBX 15 19 4 -5
BITMAP
01e2
061a
0804
1004
1000
0c00
0380
0070
0008
4004
4004
4008
b030
8fc0
0080
0080
01c0
0460
03c0
ENDCHAR
STARTCHAR tcaron
ENCODING 187
SWIDTH 660 0
DWIDTH 22 0
BBX 15 22 4 0
BITMAP
003e
003c
0078
0470
04e0
04c0
0980
0800
fff8
0800
0800
1000
1000
1000
1000
1000
2000
2000
2000
1008
1030
0fc0
ENDCHAR
STARTCHAR zacute
ENCODING 188
SWIDTH 600 0
DWIDTH 20 0
BBX 15 20 4 0
BITMAP
0006
000c
0038
0060
00c0
0000
1ffc
1008
2010
2020
0040
0080
0100
0200
0400
0800
1008
2008
4010
fff0
ENDCHAR
STARTCHAR doubleacute
ENCODING 189
SWIDTH 600 0
DWIDTH 20 0
BBX 12 5 8 16
BITMAP
0630
0c60
39c0
6300
c600
ENDCHAR
STARTCHAR zcaron
ENCODING 190
SWIDTH 600 0
DWIDTH 20 0
BBX 14 20 4 0
BITMAP
0c0c
0618
0370
01c0
0080
0000
1ffc
1008
2010
2020
0040
0080
0100
0200
0400
0800
1008
2008
4010
fff0
ENDCHAR
STARTCHAR zabovedot
ENCODING 191
SWIDTH 600 0
DWIDTH 20 0
BBX 14 18 4 0
BITMAP
0060
00e0
00c0
0000
1ffc
1008
2010
2020
0040
0080
0100
0200
0400
0800
1008
2008
4010
fff0
ENDCHAR
STARTCHAR Racute
ENCODING 192
SWIDTH 600 0
DWIDTH 20 0
BBX 19 25 1 0
BITMAP
0000c0
000180
000700
000c00
001800
000000
0ffe00
010180
010040
020040
020040
020040
020080
040100
040e00
07f000
041800
040400
080400
080200
080200
080100
100100
100080
ff00e0
ENDCHAR
STARTCHAR Aacute
ENCODING 193
SWIDTH 600 0
DWIDTH 20 0
BBX 19 26 0 0
BITMAP
000060
0000c0
000300
000600
000c00
000000
000000
01fe00
001200
001200
002200
002200
004100
004100
008100
008100
010100
020100
020100
07ff00
040100
080080
080080
100080
100080
fe07e0
ENDCHAR
STARTCHAR Acircumflex
ENCODING 194
SWIDTH 600 0
DWIDTH 20 0
BBX 19 26 0 0
BITMAP
000400
000e00
003b00
006180
00c0c0
000000
000000
01fe00
001200
001200
002200
002200
004100
004100
008100
008100
010100
020100
020100
07ff00
040100
080080
080080
100080
100080
fe07e0
ENDCHAR
STARTCHAR Abreve
ENCODING 195
SWIDTH 600 0
DWIDTH 20 0
BBX 19 25 0 0
BITMAP
018180
018180
018300
00fe00
003800
000000
01fe00
001200
001200
002200
002200
004100
004100
008100
008100
010100
020100
020100
07ff00
040100
080080
080080
100080
100080
fe07e0
ENDCHAR
STARTCHAR Adiaeresis
ENCODING 196
SWIDTH 600 0
DWIDTH 20 0
BBX 19 24 0 0
BITMAP
003060
0070e0
0060c0
000000
000000
01fe00
001200
001200
002200
002200
004100
004100
008100
008100
010100
020100
020100
07ff00
040100
080080
080080
100080
100080
fe07e0
ENDCHAR
STARTCHAR Lacute
ENCODING 197
SWIDTH 600 0
DWIDTH 20 0
BBX 17 25 2 0
BITMAP
000600
000c00
003800
006000
00c000
000000
0ff800
008000
008000
010000
010000
010000
010000
020000
020000
020000
020000
020000
040080
040080
040080
040100
080100
080100
ffff00
ENDCHAR
STARTCHAR Cacute
ENCODING 198
SWIDTH 600 0
DWIDTH 20 0
BBX 17 25 4 0
BITMAP
000180
000300
000e00
001800
003000
000000
00f080
070e80
080180
100100
200100
200100
400000
400000
800000
800000
800000
800000
800000
800000
800000
400400
401800
38e000
070000
ENDCHAR
STARTCHAR Ccedilla
ENCODING 199
SWIDTH 600 0
DWIDTH 20 0
BBX 17 24 4 -5
BITMAP
00f080
070e80
080180
100100
200100
200100
400000
400000
800000
800000
800000
800000
800000
800000
800000
400400
401800
38e000
070000
040000
040000
0e0000
230000
1e0000
ENDCHAR
STARTCHAR Ccaron
ENCODING 200
SWIDTH 600 0
DWIDTH 20 0
BBX 17 25 4 0
BITMAP
030300
018600
00dc00
007000
002000
000000
00f080
070e80
080180
100100
200100
200100
400000
400000
800000
800000
800000
800000
800000
800000
800000
400400
401800
38e000
070000
ENDCHAR
STARTCHAR Eacute
ENCODING 201
SWIDTH 600 0
DWIDTH 20 0
BBX 19 26 1 0
BITMAP
0000c0
000180
000700
000c00
001800
000000
000000
0fffe0
010020
010020
020040
020040
020440
020400
040400
07fc00
040800
040800
040800
080000
080080
080080
080080
100100
100100
ffff00
ENDCHAR
STARTCHAR Eogonek
ENCODING 202
SWIDTH 600 0
DWIDTH 20 0
BBX 19 25 1 -6
BITMAP
0fffe0
010020
010020
020040
020040
020440
020400
040400
07fc00
040800
040800
040800
080000
080080
080080
080080
100100
100100
ffff00
002000
004000
004000
008000
009000
006000
ENDCHAR
STARTCHAR Ediaeresis
ENCODING 203
SWIDTH 600 0
DWIDTH 20 0
BBX 19 24 1 0
BITMAP
003060
0070e0
0060c0
000000
000000
0fffe0
010020
010020
020040
020040
020440
020400
040400
07fc00
040800
040800
040800
080000
080080
080080
080080
100100
100100
ffff00
ENDCHAR
STARTCHAR Ecaron
ENCODING 204
SWIDTH 600 0
DWIDTH 20 0
BBX 19 25 1 0
BITMAP
018180
00c300
006e00
003800
001000
000000
0fffe0
010020
010020
020040
020040
020440
020400
040400
07fc00
040800
040800
040800
080000
080080
080080
080080
100100
100100
ffff00
ENDCHAR
STARTCHAR Iacute
ENCODING 205
SWIDTH 600 0
DWIDTH 20 0
BBX 15 26 4 0
BITMAP
0006
000c
0038
0060
00c0
0000
0000
1ffe
0040
0040
0080
0080
0080
0080
0100
0100
0100
0100
0100
0200
0200
0200
0200
0400
0400
fff0
ENDCHAR
STARTCHAR Icircumflex
ENCODING 206
SWIDTH 600 0
DWIDTH 20 0
BBX 15 26 4 0
BITMAP
0020
0070
01d8
030c
0606
0000
0000
1ffe
0040
0040
0080
0080
0080
0080
0100
0100
0100
0100
0100
0200
0200
0200
0200
0400
0400
fff0
ENDCHAR
STARTCHAR Dcaron
ENCODING 207
SWIDTH 600 0
DWIDTH 20 0
BBX 17 25 2 0
BITMAP
030300
018600
00dc00
007000
002000
000000
0ff800
020600
020100
040100
040080
040080
040080
080080
080080
080080
080080
080080
100100
100100
100200
100200
200c00
207000
ff8000
ENDCHAR
STARTCHAR Dstroke
ENCODING 208
SWIDTH 600 0
DWIDTH 20 0
BBX 17 19 2 0
BITMAP
0ff800
020600
020100
040100
040080
040080
040080
080080
080080
3f8080
080080
080080
100100
100100
100200
100200
200c00
207000
ff8000
ENDCHAR
STARTCHAR Nacute
ENCODING 209
SWIDTH 600 0
DWIDTH 20 0
BBX 20 25 2 0
BITMAP
0000c0
000180
000700
000c00
001800
000000
1f03f0
030040
028040
048080
048080
048080
044080
084100
084100
084100
082100
082100
102200
101200
101200
101200
201400
200c00
fc0c00
ENDCHAR
STARTCHAR Ncaron
ENCODING 210
SWIDTH 600 0
DWIDTH 20 0
BBX 20 25 2 0
BITMAP
018180
00c300
006e00
003800
001000
000000
1f03f0
030040
028040
048080
048080
048080
044080
084100
084100
084100
082100
082100
102200
101200
101200
101200
201400
200c00
fc0c00
ENDCHAR
STARTCHAR Oacute
ENCODING 211
SWIDTH 600 0
DWIDTH 20 0
BBX 16 26 4 0
BITMAP
0006
000c
0030
0060
00c0
0000
0000
01f0
0608
1804
2002
2002
4001
4001
4001
8001
8001
8001
8002
8002
8002
4004
4004
2018
1060
0f80
ENDCHAR
STARTCHAR Ocircumflex
ENCODING 212
SWIDTH 600 0
DWIDTH 20 0
BBX 16 26 4 0
BITMAP
0020
0070
01d8
030c
0606
0000
0000
01f0
0608
1804
2002
2002
4001
4001
4001
8001
8001
8001
8002
8002
8002
4004
4004
2018
1060
0f80
ENDCHAR
STARTCHAR Odoubleacute
ENCODING 213
SWIDTH 600 0
DWIDTH 20 0
BBX 17 25 4 0
BITMAP
003180
006300
01ce00
031800
063000
000000
01f000
060800
180400
200200
200200
400100
400100
400100
800100
800100
800100
800200
800200
800200
400400
400400
201800
106000
0f8000
ENDCHAR
STARTCHAR Odiaeresis
ENCODING 214
SWIDTH 600 0
DWIDTH 20 0
BBX 16 24 4 0
BITMAP
0306
070e
060c
0000
0000
01f0
0608
1804
2002
2002
4001
4001
4001
8001
8001
8001
8002
8002
8002
4004
4004
2018
1060
0f80
ENDCHAR
STARTCHAR multiply
ENCODING 215
SWIDTH 600 0
DWIDTH 20 0
BBX 15 14 4 1
BITMAP
1002
0804
0808
0410
0420
0240
0180
0300
0480
0840
1040
2020
4020
8010
ENDCHAR
STARTCHAR Rcaron
ENCODING 216
SWIDTH 600 0
DWIDTH 20 0
BBX 19 25 1 0
BITMAP
018180
00c300
006e00
003800
001000
000000
0ffe00
010180
010040
020040
020040
020040
020080
040100
040e00
07f000
041800
040400
080400
080200
080200
080100
100100
100080
ff00e0
ENDCHAR
STARTCHAR Uring
ENCODING 217
SWIDTH 600 0
DWIDTH 20 0
BBX 17 26 5 0
BITMAP
007000
008800
010800
010800
011000
00e000
000000
7e1f80
100200
100200
200400
200400
200400
200400
400800
400800
400800
400800
801000
801000
801000
802000
402000
404000
208000
1f0000
ENDCHAR
STARTCHAR Uacute
ENCODING 218
SWIDTH 600 0
DWIDTH 20 0
BBX 17 26 5 0
BITMAP
000c00
001800
007000
00c000
018000
000000
000000
7e1f80
100200
100200
200400
200400
200400
200400
400800
400800
400800
400800
801000
801000
801000
802000
402000
404000
208000
1f0000
ENDCHAR
STARTCHAR Udoubleacute
ENCODING 219
SWIDTH 600 0
DWIDTH 20 0
BBX 18 25 5 0
BITMAP
0018c0
003180
00e700
018c00
031800
000000
7e1f80
100200
100200
200400
200400
200400
200400
400800
400800
400800
400800
801000
801000
801000
802000
402000
404000
208000
1f0000
ENDCHAR
STARTCHAR Udiaeresis
ENCODING 220
SWIDTH 600 0
DWIDTH 20 0
BBX 17 24 5 0
BITMAP
030600
070e00
060c00
000000
000000
7e1f80
100200
100200
200400
200400
200400
200400
400800
400800
400800
400800
801000
801000
801000
802000
402000
404000
208000
1f0000
ENDCHAR
STARTCHAR Yacute
ENCODING 221
SWIDTH 600 0
DWIDTH 20 0
BBX 17 26 5 0
BITMAP
000600
000c00
003800
006000
00c000
000000
000000
f81f80
200400
100800
100800
081000
082000
084000
048000
048000
030000
020000
020000
020000
040000
040000
040000
040000
080000
ffc000
ENDCHAR
STARTCHAR Tcedilla
ENCODING 222
SWIDTH 600 0
DWIDTH 20 0
BBX 16 24 5 -5
BITMAP
3fff
2081
2081
4102
4102
4102
4102
0200
0200
0200
0200
0200
0400
0400
0400
0400
0800
0800
ffc0
0080
0080
01c0
0460
03c0
ENDCHAR
STARTCHAR ssharp
ENCODING 223
SWIDTH 600 0
DWIDTH 20 0
BBX 16 21 1 0
BITMAP
003c
00c2
0102
0101
0201
0201
0202
0402
040c
0438
0404
0402
0401
0801
0801
0801
0801
0882
1082
1084
f8f8
ENDCHAR
STARTCHAR racute
ENCODING 224
SWIDTH 600 0
DWIDTH 20 0
BBX 17 20 3 0
BITMAP
000180
000300
000e00
001800
003000
000000
1f0f00
013080
01c000
030000
020000
020000
020000
040000
040000
040000
040000
080000
080000
fff000
ENDCHAR
STARTCHAR aacute
ENCODING 225
SWIDTH 600 0
DWIDTH 20 0
BBX 14 21 4 0
BITMAP
000c
0018
0070
00c0
0180
0000
0000
03c0
1c30
0010
0008
0008
0008
0f88
3070
4010
4010
8010
8060
80a0
7f3c
ENDCHAR
STARTCHAR acircumflex
ENCODING 226
SWIDTH 600 0
DWIDTH 20 0
BBX 14 21 4 0
BITMAP
0040
00e0
03b0
0618
0c0c
0000
0000
03c0
1c30
0010
0008
0008
0008
0f88
3070
4010
4010
8010
8060
80a0
7f3c
ENDCHAR
STARTCHAR abreve
ENCODING 227
SWIDTH 600 0
DWIDTH 20 0
BBX 14 20 4 0
BITMAP
0c0c
0c0c
0c18
07f0
01c0
0000
07c0
1830
0008
0008
0008
0008
0f88
3070
4010
4010
8010
8020
80e0
7f3c
ENDCHAR
STARTCHAR adiaeresis
ENCODING 228
SWIDTH 600 0
DWIDTH 20 0
BBX 14 19 4 0
BITMAP
060c
0e1c
0c18
0000
0000
03c0
1c30
0010
0008
0008
0008
0f88
3070
4010
4010
8010
8060
80a0
7f3c
ENDCHAR
STARTCHAR lacute
ENCODING 229
SWIDTH 600 0
DWIDTH 20 0
BBX 15 26 3 0
BITMAP
0006
000c
0038
0060
00c0
0000
0fe0
0020
0040
0040
0040
0040
0040
0080
0080
0080
0080
0080
0100
0100
0100
0100
0100
0200
0200
fff8
ENDCHAR
STARTCHAR cacute
ENCODING 230
SWIDTH 600 0
DWIDTH 20 0
BBX 15 20 5 0
BITMAP
0006
000c
0038
0060
00c0
0000
07e4
1814
201c
4008
4008
8000
8000
8000
8000
8000
4008
4030
30c0
0f00
ENDCHAR
STARTCHAR ccedilla
ENCODING 231
SWIDTH 600 0
DWIDTH 20 0
BBX 15 19 4 -5
BITMAP
01e2
061a
1806
2004
2004
4000
4000
8000
8000
8000
8004
4018
38e0
0700
0400
0400
0e00
2300
1e00
ENDCHAR
STARTCHAR ccaron
ENCODING 232
SWIDTH 600 0
DWIDTH 20 0
BBX 14 20 5 0
BITMAP
0c0c
0618
0370
01c0
0080
0000
07e4
1814
201c
4008
4008
8000
8000
8000
8000
8000
4008
4030
30c0
0f00
ENDCHAR
STARTCHAR eacute
ENCODING 233
SWIDTH 600 0
DWIDTH 20 0
BBX 14 21 4 0
BITMAP
0018
0030
00c0
0180
0300
0000
0000
07c0
1830
2008
4008
4004
8004
fffc
8000
8000
8000
4000
4018
3060
0f80
ENDCHAR
STARTCHAR eogonek
ENCODING 234
SWIDTH 600 0
DWIDTH 20 0
BBX 14 20 4 -6
BITMAP
07c0
1830
2008
4008
4004
8004
fffc
8000
8000
8000
4000
4018
3060
0f80
0100
0200
0200
0400
0480
0300
ENDCHAR
STARTCHAR ediaeresis
ENCODING 235
SWIDTH 600 0
DWIDTH 20 0
BBX 14 19 4 0
BITMAP
0c18
1c38
1830
0000
0000
07c0
1830
2008
4008
4004
8004
fffc
8000
8000
8000
4000
4018
3060
0f80
ENDCHAR
STARTCHAR ecaron
ENCODING 236
SWIDTH 600 0
DWIDTH 20 0
BBX 14 20 4 0
BITMAP
1818
0c30
06e0
0380
0100
0000
07c0
1830
2008
4008
4004
8004
fffc
8000
8000
8000
4000
4018
3060
0f80
ENDCHAR
STARTCHAR iacute
ENCODING 237
SWIDTH 600 0
DWIDTH 20 0
BBX 14 21 3 0
BITMAP
000c
0018
0070
00c0
0180
0000
0000
0fc0
0040
0040
0080
0080
0080
0080
0100
0100
0100
0100
0200
0200
fff8
ENDCHAR
STARTCHAR icircumflex
ENCODING 238
SWIDTH 600 0
DWIDTH 20 0
BBX 14 21 3 0
BITMAP
0040
00e0
03b0
0618
0c0c
0000
0000
0fc0
0040
0040
0080
0080
0080
0080
0100
0100
0100
0100
0200
0200
fff8
ENDCHAR
STARTCHAR dcaron
ENCODING 239
SWIDTH 870 0
DWIDTH 29 0
BBX 25 22 4 0
BITMAP
00000f80
00000f00
000f1e00
00011c00
00023800
00023000
00026000
00020000
07820000
18640000
30140000
400c0000
400c0000
80040000
80040000
80080000
80080000
80180000
80180000
40700000
61900000
1e1e0000
ENDCHAR
STARTCHAR dstroke
ENCODING 240
SWIDTH 630 0
DWIDTH 21 0
BBX 17 20 4 0
BITMAP
000f00
000100
000200
000f80
000f80
000200
078200
186400
301400
400c00
400c00
800400
800400
800800
800800
801800
801800
407000
619000
1e1e00
ENDCHAR
STARTCHAR nacute
ENCODING 241
SWIDTH 600 0
DWIDTH 20 0
BBX 16 20 2 0
BITMAP
0003
0006
001c
0030
0060
0000
1c3c
04c2
0502
0e01
0801
0801
0801
1002
1002
1002
1002
2004
2004
fc1f
ENDCHAR
STARTCHAR ncaron
ENCODING 242
SWIDTH 600 0
DWIDTH 20 0
BBX 16 20 2 0
BITMAP
0606
030c
01b8
00e0
0040
0000
1c3c
04c2
0502
0e01
0801
0801
0801
1002
1002
1002
1002
2004
2004
fc1f
ENDCHAR
STARTCHAR oacute
ENCODING 243
SWIDTH 600 0
DWIDTH 20 0
BBX 15 21 4 0
BITMAP
0006
000c
0030
0060
00c0
0000
0000
03f0
0c08
1004
2004
2002
4002
4002
8004
8004
8008
4008
4010
2060
1f80
ENDCHAR
STARTCHAR ocircumflex
ENCODING 244
SWIDTH 600 0
DWIDTH 20 0
BBX 15 21 4 0
BITMAP
0040
00e0
03b0
0618
0c0c
0000
0000
03f0
0c08
1004
2004
2002
4002
4002
8004
8004
8008
4008
4010
2060
1f80
ENDCHAR
STARTCHAR odoubleacute
ENCODING 245
SWIDTH 600 0
DWIDTH 20 0
BBX 17 20 4 0
BITMAP
003180
006300
01ce00
031800
063000
000000
03f000
0c0800
100400
200400
200200
400200
400200
800400
800400
800800
400800
401000
206000
1f8000
ENDCHAR
STARTCHAR odiaeresis
ENCODING 246
SWIDTH 600 0
DWIDTH 20 0
BBX 15 19 4 0
BITMAP
0306
070e
060c
0000
0000
03f0
0c08
1004
2004
2002
4002
4002
8004
8004
8008
4008
4010
2060
1f80
ENDCHAR
STARTCHAR division
ENCODING 247
SWIDTH 600 0
DWIDTH 20 0
BBX 14 15 5 2
BITMAP
00e0
01e0
01c0
0000
0000
0000
0000
fffc
0000
0000
0000
0000
0700
0f00
0e00
ENDCHAR
STARTCHAR rcaron
ENCODING 248
SWIDTH 600 0
DWIDTH 20 0
BBX 17 20 3 0
BITMAP
030300
018600
00dc00
007000
002000
000000
1f0f00
013080
01c000
030000
020000
020000
020000
040000
040000
040000
040000
080000
080000
fff000
ENDCHAR
STARTCHAR uring
ENCODING 249
SWIDTH 600 0
DWIDTH 20 0
BBX 15 21 4 0
BITMAP
01c0
0220
0420
0420
0440
0380
0000
f03e
1002
1002
2004
2004
2004
2004
2008
4008
4008
4008
4030
20d0
1f1c
ENDCHAR
STARTCHAR uacute
ENCODING 250
SWIDTH 600 0
DWIDTH 20 0
BBX 15 22 4 0
BITMAP
000c
0018
0070
00c0
0180
0000
0000
0000
f03e
1002
1002
2004
2004
2004
2004
2008
4008
4008
4008
4030
2050
1f9c
ENDCHAR
STARTCHAR udoubleacute
ENCODING 251
SWIDTH 600 0
DWIDTH 20 0
BBX 16 20 4 0
BITMAP
0063
00c6
039c
0630
0c60
0000
f03e
1002
1002
2004
2004
2004
2004
2008
4008
4008
4008
4030
20d0
1f1c
ENDCHAR
STARTCHAR udiaeresis
ENCODING 252
SWIDTH 600 0
DWIDTH 20 0
BBX 15 19 4 0
BITMAP
060c
0e1c
0c18
0000
0000
f03e
1002
1002
2004
2004
2004
2004
2008
4008
4008
4008
4030
6050
1f9c
ENDCHAR
STARTCHAR yacute
ENCODING 253
SWIDTH 600 0
DWIDTH 20 0
BBX 20 28 1 -6
BITMAP
000300
000600
001c00
003000
006000
000000
000000
000000
1f03f0
080080
040080
040100
040200
020200
020400
020800
020800
011000
012000
014000
00c000
008000
010000
010000
020000
040000
040000
ff8000
ENDCHAR
STARTCHAR tcedilla
ENCODING 254
SWIDTH 600 0
DWIDTH 20 0
BBX 13 24 4 -5
BITMAP
0400
0400
0400
0800
0800
fff8
0800
0800
1000
1000
1000
1000
1000
2000
2000
2000
1008
1030
0fc0
0100
0100
0380
08c0
0780
ENDCHAR
STARTCHAR abovedot
ENCODING 255
SWIDTH 600 0
DWIDTH 20 0
BBX 3 3 12 16
BITMAP
60
e0
c0
ENDCHAR
ENDFONT
